<?xml version="1.0" encoding="utf-8"?>
<!-- Generator: Adobe Illustrator 17.0.1, SVG Export Plug-In . SVG Version: 6.00 Build 0)  -->
<!DOCTYPE svg PUBLIC "-//W3C//DTD SVG 1.1//EN" "http://www.w3.org/Graphics/SVG/1.1/DTD/svg11.dtd">
<svg version="1.1" id="Capa_1" xmlns="http://www.w3.org/2000/svg" xmlns:xlink="http://www.w3.org/1999/xlink" x="0px" y="0px"
	 width="27.902px" height="33.081px" viewBox="0 0 27.902 33.081" enable-background="new 0 0 27.902 33.081" xml:space="preserve">
<g>
	<g>
		<g>
			<path fill="#FFFFFF" d="M25.489,22.97c-1.331,0-2.413-1.096-2.413-2.443v-7.593c0-1.348,1.082-2.443,2.413-2.443
				s2.413,1.096,2.413,2.443v7.593C27.902,21.874,26.82,22.97,25.489,22.97z M25.489,11.491c-0.779,0-1.413,0.647-1.413,1.443v7.593
				c0,0.796,0.634,1.443,1.413,1.443s1.413-0.647,1.413-1.443v-7.593C26.902,12.138,26.269,11.491,25.489,11.491z M2.413,22.97
				C1.082,22.97,0,21.874,0,20.527v-7.593c0-1.348,1.082-2.443,2.413-2.443s2.413,1.096,2.413,2.443v7.593
				C4.826,21.874,3.744,22.97,2.413,22.97z M2.413,11.491C1.634,11.491,1,12.138,1,12.934v7.593c0,0.796,0.634,1.443,1.413,1.443
				s1.413-0.647,1.413-1.443v-7.593C3.826,12.138,3.192,11.491,2.413,11.491z"/>
		</g>
	</g>
	<g>
		<g>
			<path fill="#FFFFFF" d="M17.391,33.081c-1.331,0-2.413-1.096-2.413-2.442v-3.725H13v3.725c0,1.347-1.082,2.442-2.413,2.442
				s-2.413-1.096-2.413-2.442v-3.725H6.97c-1.099,0-1.992-0.894-1.992-1.992V10.549h18.023v14.373c0,1.099-0.894,1.992-1.992,1.992
				h-1.204v3.725C19.805,31.986,18.722,33.081,17.391,33.081z M12,25.914h3.978v4.725c0,0.795,0.634,1.442,1.413,1.442
				s1.414-0.647,1.414-1.442v-4.725h2.204c0.547,0,0.992-0.445,0.992-0.992V11.549H5.978v13.373c0,0.547,0.445,0.992,0.992,0.992
				h2.204v4.725c0,0.795,0.634,1.442,1.413,1.442S12,31.434,12,30.639V25.914z"/>
		</g>
	</g>
	<g>
		<g>
			<path fill="#FFFFFF" d="M23.008,9.669H4.895l0.047-0.543C5.16,6.598,6.73,4.355,9.179,3.028l-1.247-1.81
				C7.81,1.041,7.761,0.82,7.799,0.612c0.037-0.201,0.148-0.374,0.313-0.487c0.339-0.232,0.844-0.128,1.086,0.223l1.412,2.049
				c2.123-0.738,4.559-0.738,6.682,0l1.413-2.051c0.24-0.349,0.747-0.454,1.085-0.222c0.165,0.114,0.276,0.287,0.313,0.487
				c0.038,0.208-0.011,0.43-0.134,0.607l-1.246,1.809c2.448,1.327,4.019,3.57,4.237,6.099L23.008,9.669z M6.01,8.669h15.883
				c-0.381-2.118-1.886-3.961-4.117-4.999L17.3,3.466c-2.107-0.83-4.59-0.83-6.697,0L10.127,3.67
				C7.896,4.708,6.391,6.551,6.01,8.669z"/>
		</g>
	</g>
	<g>
		<g>
			<circle fill="#FFFFFF" cx="10.36" cy="5.873" r="0.942"/>
		</g>
	</g>
	<g>
		<g>
			<circle fill="#FFFFFF" cx="17.66" cy="5.873" r="0.942"/>
		</g>
	</g>
</g>
</svg>
