<?xml version="1.0" encoding="utf-8"?>
<!-- Generator: Adobe Illustrator 17.0.1, SVG Export Plug-In . SVG Version: 6.00 Build 0)  -->
<!DOCTYPE svg PUBLIC "-//W3C//DTD SVG 1.1//EN" "http://www.w3.org/Graphics/SVG/1.1/DTD/svg11.dtd">
<svg version="1.1" id="Capa_1" xmlns="http://www.w3.org/2000/svg" xmlns:xlink="http://www.w3.org/1999/xlink" x="0px" y="0px"
	 width="345.95px" height="81.336px" viewBox="0 0 345.95 81.336" enable-background="new 0 0 345.95 81.336" xml:space="preserve">
<path fill="#E2001A" d="M304.77,0.008c0.033-0.003,0.056-0.008,0.08-0.007c0.34,0.009,8.108,0.609,8.244,0.637
	c0.003,0.035,0.009,0.072,0.01,0.109l0.048,1.836c0.014,0.535,0.029,1.071,0.044,1.606c0.02,0.722,0.039,1.444,0.059,2.165
	c0.014,0.531,0.028,1.061,0.044,1.592c0.017,0.612,0.037,1.224,0.054,1.835c0.013,0.459,0.025,0.918,0.034,1.377
	c0.007,0.347-0.046,0.687-0.164,1.014c-0.299,0.826-0.89,1.344-1.769,1.536c-0.688,0.15-1.37,0.101-2.034-0.146
	c-0.327-0.121-0.62-0.295-0.858-0.549c-0.239-0.255-0.367-0.553-0.383-0.897c-0.012-0.25,0.002-0.496,0.08-0.737
	c0.096-0.296,0.27-0.537,0.52-0.728c0.243-0.185,0.522-0.301,0.819-0.379c0.435-0.115,0.88-0.15,1.33-0.138
	c0.271,0.008,0.542,0.016,0.81,0.059c0.019,0.003,0.039,0.002,0.069,0.003c0.005-0.032,0.014-0.063,0.013-0.094
	c-0.007-0.215-0.016-0.43-0.026-0.645c-0.009-0.186-0.02-0.373-0.029-0.559c-0.024-0.511-0.049-1.022-0.072-1.533
	c-0.015-0.33-0.028-0.659-0.043-0.989c-0.012-0.267-0.027-0.535-0.04-0.81c-0.035-0.008-0.066-0.02-0.099-0.023
	c-0.52-0.049-1.04-0.097-1.56-0.146c-0.638-0.06-1.275-0.12-1.913-0.18c-0.461-0.044-0.922-0.087-1.383-0.131
	c-0.108-0.01-0.215-0.022-0.317-0.033c-0.047,0.039-0.035,0.085-0.035,0.126c-0.002,0.287-0.001,0.574-0.002,0.86
	c-0.003,0.688-0.007,1.377-0.009,2.065c-0.003,0.846-0.004,1.692-0.005,2.538c0,0.096,0.001,0.191,0.002,0.287
	c0.007,0.696-0.284,1.248-0.85,1.661c-0.403,0.294-0.863,0.445-1.366,0.482c-0.502,0.037-0.993-0.02-1.474-0.168
	c-0.27-0.083-0.523-0.2-0.751-0.367c-0.311-0.228-0.529-0.517-0.612-0.889c-0.079-0.35-0.055-0.695,0.076-1.029
	c0.111-0.284,0.306-0.508,0.559-0.684c0.238-0.166,0.505-0.275,0.785-0.352c0.303-0.084,0.614-0.127,0.929-0.15
	c0.33-0.025,0.659-0.01,0.989,0.006c0.044,0.002,0.087,0.003,0.14,0.005c0.005-0.032,0.014-0.058,0.014-0.085
	c0.004-0.822,0.008-1.644,0.011-2.467c0.004-0.86,0.008-1.721,0.012-2.581c0.004-0.832,0.007-1.664,0.01-2.495
	c0.002-0.559,0.003-1.119,0.004-1.678c0-0.042,0-0.084,0.01-0.13L304.77,0.008z M306.34,1.582c-0.005,0.039-0.01,0.062-0.009,0.085
	c0.007,0.32,0.015,0.64,0.024,0.96c0.006,0.224,0.015,0.449,0.024,0.673c0.001,0.027,0.008,0.054,0.013,0.082
	c0.033,0.005,0.056,0.009,0.08,0.011c0.545,0.044,1.089,0.09,1.634,0.133c0.53,0.042,1.06,0.081,1.591,0.122
	c0.26,0.02,0.52,0.044,0.78,0.064c0.358,0.028,0.717,0.055,1.075,0.081c0.032,0.002,0.065-0.005,0.097-0.008
	c0.002-0.292-0.076-1.667-0.102-1.785c-0.016-0.004-0.035-0.013-0.053-0.014c-1.71-0.133-3.43-0.268-5.15-0.404L306.34,1.582z"/>
<path fill="#E2001A" d="M333.56,9.46c0.047-0.005,0.081-0.012,0.115-0.011c0.49,0.013,11.665,0.876,11.86,0.916
	c0.005,0.05,0.013,0.103,0.015,0.157c0.023,0.88,0.045,1.761,0.069,2.641c0.02,0.77,0.042,1.54,0.063,2.311
	c0.028,1.038,0.057,2.077,0.085,3.115c0.021,0.763,0.041,1.527,0.063,2.29c0.025,0.88,0.053,1.76,0.077,2.641
	c0.018,0.66,0.036,1.32,0.048,1.981c0.009,0.5-0.066,0.988-0.236,1.458c-0.43,1.188-1.28,1.934-2.546,2.21
	c-0.99,0.216-1.971,0.145-2.926-0.209c-0.47-0.174-0.892-0.425-1.235-0.791c-0.344-0.367-0.529-0.795-0.551-1.29
	c-0.017-0.36,0.003-0.714,0.115-1.06c0.138-0.425,0.389-0.773,0.749-1.047c0.35-0.267,0.751-0.433,1.178-0.546
	c0.626-0.165,1.266-0.216,1.914-0.198c0.39,0.011,0.779,0.023,1.166,0.084c0.028,0.004,0.056,0.002,0.099,0.004
	c0.007-0.046,0.02-0.091,0.018-0.136c-0.011-0.309-0.023-0.619-0.038-0.928c-0.012-0.268-0.029-0.536-0.042-0.804
	c-0.035-0.735-0.07-1.471-0.104-2.206c-0.022-0.474-0.04-0.949-0.062-1.423c-0.018-0.385-0.038-0.769-0.058-1.165
	c-0.05-0.012-0.096-0.029-0.142-0.033c-0.748-0.071-1.496-0.139-2.244-0.209c-0.917-0.086-1.835-0.173-2.752-0.26
	c-0.663-0.063-1.327-0.125-1.99-0.188c-0.155-0.015-0.31-0.032-0.456-0.047c-0.068,0.056-0.05,0.122-0.05,0.181
	c-0.003,0.413-0.001,0.825-0.003,1.238c-0.004,0.99-0.01,1.981-0.014,2.971c-0.004,1.217-0.006,2.435-0.008,3.652
	c0,0.138,0.002,0.275,0.003,0.413c0.011,1.001-0.409,1.795-1.223,2.39c-0.579,0.423-1.242,0.64-1.965,0.694
	c-0.722,0.054-1.429-0.029-2.12-0.242c-0.388-0.119-0.753-0.289-1.08-0.528c-0.447-0.327-0.761-0.743-0.881-1.279
	c-0.113-0.504-0.079-1,0.109-1.48c0.16-0.409,0.44-0.73,0.805-0.984c0.343-0.239,0.726-0.395,1.129-0.506
	c0.437-0.12,0.884-0.182,1.337-0.216c0.475-0.035,0.949-0.015,1.423,0.009c0.063,0.003,0.126,0.004,0.201,0.007
	c0.008-0.046,0.02-0.084,0.02-0.122c0.006-1.183,0.011-2.366,0.017-3.549c0.006-1.238,0.012-2.476,0.017-3.714
	c0.005-1.197,0.01-2.393,0.014-3.59c0.003-0.805,0.004-1.609,0.006-2.414c-0.05-0.061-0.04-0.121-0.03-0.188L333.56,9.46z
	 M335.81,11.725c-0.007,0.057-0.014,0.09-0.014,0.123c0.011,0.461,0.021,0.921,0.034,1.382c0.009,0.323,0.022,0.646,0.034,0.969
	c0.001,0.039,0.012,0.077,0.019,0.119c0.047,0.007,0.081,0.013,0.116,0.016c0.784,0.064,1.567,0.129,2.351,0.191
	c0.763,0.06,1.526,0.116,2.288,0.176c0.374,0.029,0.748,0.063,1.123,0.093c0.516,0.04,1.031,0.079,1.547,0.116
	c0.047,0.003,0.094-0.007,0.14-0.011c0.003-0.421-0.11-2.399-0.147-2.568c-0.024-0.006-0.05-0.018-0.077-0.02
	c-2.46-0.196-4.92-0.39-7.41-0.586H335.81z"/>
<path d="M44.774,36.994v-17.35c0-6.492,5.263-11.756,11.756-11.756h99.487c6.493,0,11.756,5.263,11.756,11.756v17.047"/>
<circle fill="#E2001A" cx="63.741" cy="21.663" r="6.103"/>
<line fill="none" stroke="#FFFFFF" stroke-miterlimit="10" x1="75.305" y1="12.776" x2="75.305" y2="32.05"/>
<path fill="#FFFFFF" stroke="#E2001A" stroke-width="4" stroke-miterlimit="10" d="M315.18,59.944
	c0,10.71-8.682,19.392-19.392,19.392h-274.4c-10.708,0-19.39-8.682-19.39-19.392v-2.748c0-10.71,8.682-19.392,19.392-19.392h274.4
	c10.71,0,19.392,8.682,19.392,19.392v2.748H315.18z"/>
<g>
	<path fill="#E2001A" d="M18.746,50.831h7.904c2.555,0,4.322,0.668,5.445,1.814c0.979,0.955,1.48,2.245,1.48,3.893v0.048
		c0,2.556-1.361,4.251-3.439,5.134l3.988,5.827h-5.349l-3.367-5.063h-2.03v5.063h-4.633L18.746,50.831L18.746,50.831z
		 M26.436,58.855c1.576,0,2.483-0.764,2.483-1.982v-0.047c0-1.313-0.955-1.982-2.507-1.982h-3.033v4.012h3.057V58.855z"/>
	<path fill="#E2001A" d="M41.407,50.712h4.465l7.116,16.835h-4.967l-1.218-2.985h-6.447l-1.194,2.985H34.29L41.407,50.712z
		 M45.467,60.956l-1.863-4.752l-1.887,4.752H45.467z"/>
	<path fill="#E2001A" d="M54.611,50.831h6.448c5.97,0,9.433,3.438,9.433,8.263v0.048c0,4.823-3.51,8.405-9.528,8.405h-6.352
		L54.611,50.831L54.611,50.831z M61.13,63.44c2.77,0,4.609-1.528,4.609-4.227v-0.048c0-2.675-1.839-4.227-4.609-4.227h-1.887v8.501
		h1.887L61.13,63.44z"/>
	<path fill="#E2001A" d="M72.973,50.831h4.657v16.716h-4.657V50.831z"/>
	<path fill="#E2001A" d="M80.112,59.237v-0.048c0-4.8,3.869-8.692,9.027-8.692s8.979,3.845,8.979,8.646v0.047
		c0,4.8-3.869,8.692-9.027,8.692S80.112,64.036,80.112,59.237z M93.389,59.237v-0.048c0-2.411-1.743-4.513-4.298-4.513
		c-2.531,0-4.227,2.054-4.227,4.466v0.047c0,2.412,1.743,4.514,4.274,4.514C91.694,63.702,93.389,61.649,93.389,59.237z"/>
	<path fill="#E2001A" d="M107.14,50.831h13.444v3.94h-8.859v2.531h8.024v3.653h-8.024v2.65h8.979v3.94H107.14V50.831z"/>
	<path fill="#E2001A" d="M123.07,50.831h4.322l6.877,8.835v-8.835h4.585v16.716h-4.06l-7.14-9.17v9.17h-4.585L123.07,50.831
		L123.07,50.831z"/>
	<path fill="#E2001A" d="M147.09,50.831h5.182l3.797,10.579l3.797-10.579h5.086l-6.782,16.835h-4.298l-6.79-16.835H147.09z"/>
	<path fill="#E2001A" d="M166.67,50.831h4.657v16.716h-4.657V50.831z"/>
	<path fill="#E2001A" d="M173.04,50.831h5.182l3.797,10.579l3.797-10.579h5.086l-6.782,16.835h-4.298l-6.79-16.835H173.04z"/>
	<path fill="#E2001A" d="M190.88,59.237v-0.048c0-4.8,3.869-8.692,9.027-8.692s8.979,3.845,8.979,8.646v0.047
		c0,4.8-3.869,8.692-9.027,8.692S190.879,64.036,190.88,59.237L190.88,59.237z M204.16,59.237v-0.048
		c0-2.411-1.743-4.513-4.298-4.513c-2.531,0-4.227,2.054-4.227,4.466v0.047c0,2.412,1.743,4.514,4.274,4.514
		c2.56-0.001,4.26-2.054,4.26-4.466H204.16z"/>
</g>
<g enable-background="new    ">
	<path fill="#FFFFFF" d="M87.908,15.733h3.342l5.324,12.597h-3.716l-0.911-2.233h-4.825l-0.893,2.233h-3.645L87.908,15.733z
		 M90.945,23.398l-1.394-3.556l-1.412,3.556H90.945z"/>
	<path fill="#FFFFFF" d="M97.789,15.822h3.466v9.471h6.057v3.037h-9.523V15.822z"/>
	<path fill="#FFFFFF" d="M118.071,15.733h3.341l5.324,12.597h-3.716l-0.911-2.233h-4.825l-0.893,2.233h-3.645L118.071,15.733z
		 M121.108,23.398l-1.394-3.556l-1.412,3.556H121.108z"/>
	<path fill="#FFFFFF" d="M128.023,15.822h3.484V28.33h-3.484V15.822z"/>
	<path fill="#FFFFFF" d="M133.795,15.822h5.914c1.912,0,3.234,0.5,4.074,1.358c0.732,0.715,1.108,1.68,1.108,2.912v0.036
		c0,1.912-1.019,3.181-2.573,3.842l2.984,4.359H141.3l-2.52-3.788h-0.036h-1.483v3.788h-3.466V15.822z M139.549,21.826
		c1.179,0,1.858-0.572,1.858-1.483v-0.035c0-0.983-0.715-1.483-1.876-1.483h-2.269v3.002H139.549z"/>
	<path fill="#FFFFFF" d="M146.643,15.822h10.06v2.948h-6.629v1.895h6.003v2.733h-6.003v1.983h6.718v2.948h-10.149V15.822z"/>
</g>
</svg>
